# AST/ASF file generated using VICON BodyLanguage
# -----------------------------------------------
:version 1.10
:name VICON
:units
  mass 1.0
  length 0.45
  angle deg
:documentation
   .ast/.asf automatically generated from VICON data using
   VICON BodyBuilder and BodyLanguage model FoxedUp or BRILLIANT.MOD
:root
   order TX TY TZ RX RY RZ
   axis XYZ
   position 0 0 0  
   orientation 0 0 0 
:bonedata
  begin
     id 1 
     name lhipjoint
     direction 0.660183 -0.676772 0.325788 
     length 2.75133 
     axis 0 0 0  XYZ
  end
  begin
     id 2 
     name lfemur
     direction 0.34202 -0.939693 0  
     length 7.70317  
     axis 0 0 20  XYZ
    dof rx ry rz
    limits (-160.0 20.0)
           (-70.0 70.0)
           (-60.0 70.0)
  end
  begin
     id 3 
     name ltibia
     direction 0.342105 -0.939662 0   
     length 7.18701   
     axis 0 0 20   XYZ
    dof rx
    limits (-10.0 170.0)
  end
  begin
     id 4 
     name lfoot
     direction 0.14163 -0.389126 0.910232   
     length 2.41719   
     axis -90 7.62852e-016 20   XYZ
    dof rx rz
    limits (-45.0 90.0)
           (-70.0 20.0)
  end
  begin
     id 5 
     name ltoes
     direction 1.53533e-011 -4.21926e-011 1   
     length 1.18611   
     axis -90 7.62852e-016 20   XYZ
    dof rx
    limits (-90.0 20.0)
  end
  begin
     id 6 
     name rhipjoint
     direction -0.6658 -0.67229 0.323631   
     length 2.76968  
     axis 0 0 0  XYZ 
  end
  begin
     id 7 
     name rfemur
     direction -0.34202 -0.939693 0   
     length 7.92547   
     axis 0 0 -20   XYZ
    dof rx ry rz
    limits (-160.0 20.0)
           (-70.0 70.0)
           (-70.0 60.0)
  end
  begin
     id 8 
     name rtibia
     direction -0.342022 -0.939692 0   
     length 7.22641   
     axis 0 0 -20   XYZ
    dof rx
    limits (-10.0 170.0)
 end
 begin
     id 9 
     name rfoot
     direction -0.105675 -0.29034 0.951071   
     length 2.48149  
     axis -90 -7.62852e-016 -20   XYZ
    dof rx rz
    limits (-45.0 90.0)
           (-20.0 70.0)
  end
  begin
     id 10 
     name rtoes
     direction -1.5349e-011 -4.21859e-011 1   
     length 1.23343   
     axis -90 -7.62852e-016 -20   XYZ
    dof rx
    limits (-90.0 20.0)
  end
  begin
     id 11 
     name lowerback
     direction 0.0104173 0.993624 -0.112266   
     length 2.00527   
     axis 0 0 0   XYZ
    dof rx ry rz
    limits (-20.0 45.0)
           (-30.0 30.0)
           (-30.0 30.0)
  end
  begin
     id 12 
     name upperback
     direction 0.00733149 0.999856 -0.0152913   
     length 2.01385   
     axis 0 0 0   XYZ
    dof rx ry rz
    limits (-20.0 45.0)
           (-30.0 30.0)
           (-30.0 30.0)
  end
  begin
     id 13 
     name thorax
     direction 0.0026304 0.999318 0.036841   
     length 2.03734   
     axis 0 0 0   XYZ
    dof rx ry rz
    limits (-20.0 45.0)
           (-30.0 30.0)
           (-30.0 30.0)
  end
  begin
     id 14 
     name lowerneck
     direction 0.0293154 0.998757 0.0403082   
     length 1.65303   
     axis 0 0 0   XYZ
    dof rx ry rz
    limits (-20.0 45.0)
           (-30.0 30.0)
           (-30.0 30.0)
  end
  begin
     id 15 
     name upperneck
     direction -0.0376619 0.998184 -0.0470083   
     length 1.60926   
     axis 0 0 0   XYZ
    dof rx ry rz
    limits (-20.0 45.0)
           (-30.0 30.0)
           (-30.0 30.0)
  end
  begin
     id 16
     name head
     direction -0.0170133 0.999635 -0.0209778  
     length 1.73625  
     axis 0 0 0   XYZ
    dof rx ry rz
    limits (-20.0 45.0)
           (-30.0 30.0)
           (-30.0 30.0)
  end
  begin
     id 17 
     name lclavicle
     direction 0.919857 0.39181 -0.0186333  
     length 3.75313  
     axis 0 0 0   XYZ
    dof ry rz
    limits (-20.0 10.0)
           (0.0 20.0)
  end
  begin
     id 18 
     name lhumerus
     direction 1 -4.48988e-011 1.44029e-027   
     length 5.49313   
     axis 180 -30 -90   XYZ
    dof rx ry rz
    limits (-60.0 90.0)
           (-90.0 90.0)
           (-90.0 90.0)
  end
  begin
     id 19
     name lradius
     direction 1 -4.48924e-011 7.46281e-027   
     length 3.29037   
     axis 180 -30 -90   XYZ
    dof rx
    limits (-10.0 170.0)
  end
  begin
     id 20
     name lwrist
     direction 1 -4.48955e-011 2.19879e-026   
     length 1.64519   
     axis -1.34358e-014 90 90   XYZ
    dof ry
    limits (-180.0 0.0)
 end
  begin
     id 21 
     name lhand
     direction 1 -4.48978e-011 4.39747e-026   
     length 0.729656   
     axis -2.80598e-014 90 90   XYZ
    dof rx rz
    limits (-90.0 90.0)
           (-45.0 45.0)
  end
  begin
     id 22 
     name lfingers
     direction 1 -4.49071e-011 8.79411e-026   
     length 0.588268   
     axis -5.61193e-014 90 90   XYZ
    dof rx
    limits (0.0 90.0)
  end
  begin
     id 23
     name lthumb
     direction 0.707107 -6.34817e-011 0.707107   
     length 0.844638   
     axis -90 45 -9.86923e-015   XYZ
    dof rx rz
    limits (-45.0 45.0)
           (-45.0 45.0)
  end
  begin
     id 24 
     name rclavicle
     direction -0.919898 0.388279 0.0550233   
     length 3.7171  
     axis 0 0 0   XYZ 
    dof ry rz
    limits (-10.0 20.0)
           (-20.0 0.0)
  end
  begin
     id 25 
     name rhumerus
     direction -1 -4.48968e-011 9.98372e-028  
     length 5.23684   
     axis 180 30 90   XYZ
    dof rx ry rz
    limits (-90.0 60.0)
           (-90.0 90.0)
           (-90.0 90.0)
  end
  begin
     id 26 
     name rradius
     direction -1 -4.48956e-011 1.01023e-026   
     length 3.38251   
     axis 180 30 90   XYZ
    dof rx
    limits (-10.0 170.0)
  end
  begin
     id 27 
     name rwrist
     direction -1 -4.4892e-011 2.19886e-026   
     length 1.69126   
     axis -1.34358e-014 -90 -90   XYZ
    dof ry
    limits (-180.0 0.0)
  end
  begin
     id 28
     name rhand
     direction -1 -4.49024e-011 4.39727e-026   
     length 0.691454   
     axis -2.80598e-014 -90 -90   XYZ
    dof rx rz
    limits (-90.0 90.0)
           (-45.0 45.0)
  end
  begin
     id 29
     name rfingers
     direction -1 -4.49097e-011 8.79388e-026   
     length 0.557468   
     axis -5.61193e-014 -90 -90   XYZ
    dof rx
    limits (0.0 90.0)
  end
  begin
     id 30
     name rthumb
     direction -0.707107 -6.34938e-011 0.707107   
     length 0.800416   
     axis -90 -45 9.86923e-015   XYZ
    dof rx rz
    limits (-45.0 45.0)
           (-45.0 45.0)
  end
:hierarchy
  begin
    root lhipjoint rhipjoint lowerback
    lhipjoint lfemur
    lfemur ltibia
    ltibia lfoot
    lfoot ltoes
    rhipjoint rfemur
    rfemur rtibia
    rtibia rfoot
    rfoot rtoes
    lowerback upperback
    upperback thorax
    thorax lowerneck lclavicle rclavicle
    lowerneck upperneck
    upperneck head
    lclavicle lhumerus
    lhumerus lradius
    lradius lwrist
    lwrist lhand lthumb
    lhand lfingers
    rclavicle rhumerus
    rhumerus rradius
    rradius rwrist
    rwrist rhand rthumb
    rhand rfingers
  end

#!OML:ASF H:\BabyWalks\Project 1\Capture day 1\Session 1\baby.ASF
:FULLY-SPECIFIED
:DEGREES
84
root -37.8519 17.5722 15.2538 -14.2827 76.5115 -15.5416
lowerback 16.0529 -1.47018 4.29158
upperback 6.17585 -0.962396 0.974033
thorax -2.48402 -0.318429 -1.23519
lowerneck 0.499962 3.73701 4.49829
upperneck 2.13996 5.10113 -5.75112
head 0.871554 2.55119 -2.55772
rclavicle -1.63128e-014 -1.98909e-014
rhumerus -45.6209 14.1174 -85.9154
rradius 37.6405
rwrist 0.41262
rhand -9.14387 -14.6928
rfingers 7.12502
rthumb 16.8079 -43.9853
lclavicle -1.63128e-014 -1.98909e-014
lhumerus -45.9135 -1.29378 81.3747
lradius 43.9394
lwrist 5.51506
lhand 0.779074 14.4868
lfingers 7.12502
lthumb 26.3364 42.6782
rfemur 12.7936 0.191958 27.1245
rtibia 2.93122
rfoot -17.2367 -24.1327
rtoes 6.21563
lfemur -16.3227 -0.205695 -18.2314
ltibia 33.6016
lfoot -17.5378 7.70025
ltoes -1.45665
85
root -37.8535 17.5702 15.2543 -14.1219 76.5199 -15.3973
lowerback 16.0692 -1.44705 4.27281
upperback 6.16447 -0.935171 0.951717
thorax -2.50341 -0.30571 -1.2527
lowerneck 0.51428 3.71675 4.55452
upperneck 2.13722 5.07486 -5.77269
head 0.869146 2.5386 -2.5759
rclavicle -1.44398e-014 4.75592e-014
rhumerus -45.6522 14.0428 -85.9224
rradius 37.6518
rwrist 0.411295
rhand -9.12893 -14.7174
rfingers 7.12502
rthumb 16.8223 -44.0087
lclavicle -1.44398e-014 4.75592e-014
lhumerus -45.9173 -1.35207 81.3679
lradius 43.9458
lwrist 5.49951
lhand 0.801593 14.4828
lfingers 7.12502
lthumb 26.3579 42.6709
rfemur 12.8512 0.19503 27.0828
rtibia 2.76488
rfoot -17.1662 -24.108
rtoes 6.25933
lfemur -16.3694 -0.213072 -18.2679
ltibia 33.644
lfoot -17.5659 7.71582
ltoes -1.37004
86
root -37.8556 17.5681 15.2547 -13.9505 76.5372 -15.2456
lowerback 16.0921 -1.4253 4.25061
upperback 6.15169 -0.90988 0.928901
thorax -2.52783 -0.294072 -1.26838
lowerneck 0.527678 3.69628 4.61522
upperneck 2.13171 5.04825 -5.79774
head 0.866228 2.52586 -2.59608
rclavicle 1.94747e-015 -2.31522e-014
rhumerus -45.6614 13.9518 -85.9201
rradius 37.628
rwrist 0.424119
rhand -9.11659 -14.7316
rfingers 7.12502
rthumb 16.8342 -44.0219
lclavicle 1.94747e-015 -2.31522e-014
lhumerus -45.9182 -1.40802 81.3596
lradius 43.9494
lwrist 5.47543
lhand 0.837546 14.4831
lfingers 7.12502
lthumb 26.3924 42.6661
rfemur 12.8789 0.190521 27.0379
rtibia 2.65161
rfoot -17.1215 -24.0859
rtoes 6.29252
lfemur -16.4261 -0.229787 -18.3092
ltibia 33.6921
lfoot -17.5837 7.73357
ltoes -1.31
87
root -37.8575 17.5658 15.2548 -13.7749 76.56 -15.0924
lowerback 16.1202 -1.40524 4.22853
upperback 6.13778 -0.886441 0.906202
thorax -2.55632 -0.28342 -1.28363
lowerneck 0.543114 3.67566 4.67614
upperneck 2.12014 5.02129 -5.82368
head 0.861016 2.51299 -2.6167
rclavicle 1.80894e-014 -3.04327e-014
rhumerus -45.6727 13.8614 -85.9161
rradius 37.6081
rwrist 0.436862
rhand -9.10855 -14.7483
rfingers 7.12502
rthumb 16.8419 -44.0379
lclavicle 1.80894e-014 -3.04327e-014
lhumerus -45.9176 -1.45788 81.3505
lradius 43.9503
lwrist 5.4474
lhand 0.86891 14.4773
lfingers 7.12502
lthumb 26.4224 42.6558
rfemur 12.8695 0.18143 26.9916
rtibia 2.60835
rfoot -17.1169 -24.067
rtoes 6.32773
lfemur -16.4909 -0.261489 -18.3539
ltibia 33.7468
lfoot -17.5707 7.7628
ltoes -1.38608
88
root -37.86 17.5636 15.2548 -13.6019 76.6006 -14.9502
lowerback 16.1539 -1.38974 4.20475
upperback 6.12119 -0.868801 0.885287
thorax -2.5908 -0.275807 -1.29493
lowerneck 0.557659 3.65507 4.73738
upperneck 2.10183 4.99406 -5.8491
head 0.853771 2.49999 -2.63727
rclavicle -1.64525e-014 -1.14177e-014
rhumerus -45.6851 13.7701 -85.9084
rradius 37.5957
rwrist 0.448953
rhand -9.10196 -14.7732
rfingers 7.12502
rthumb 16.8483 -44.0623
lclavicle -1.64525e-014 -1.14177e-014
lhumerus -45.9119 -1.50416 81.343
lradius 43.9462
lwrist 5.42036
lhand 0.892142 14.4677
lfingers 7.12502
lthumb 26.4446 42.6428
rfemur 12.8074 0.155759 26.9451
rtibia 2.65393
rfoot -17.1458 -24.053
rtoes 6.32145
lfemur -16.5739 -0.318567 -18.4012
ltibia 33.8079
lfoot -17.5439 7.79943
ltoes -1.54528
89
root -37.8627 17.5613 15.2545 -13.4354 76.6521 -14.8213
lowerback 16.1908 -1.377 4.18159
upperback 6.10309 -0.854404 0.866198
thorax -2.62877 -0.269875 -1.30405
lowerneck 0.571137 3.63595 4.79845
upperneck 2.07976 4.96858 -5.87348
head 0.845555 2.48785 -2.65747
rclavicle 8.4763e-015 -2.65005e-014
rhumerus -45.7026 13.6795 -85.8981
rradius 37.596
rwrist 0.457775
rhand -9.09838 -14.8073
rfingers 7.12502
rthumb 16.8517 -44.0961
lclavicle 8.4763e-015 -2.65005e-014
lhumerus -45.902 -1.54492 81.3364
lradius 43.9382
lwrist 5.39884
lhand 0.901004 14.4535
lfingers 7.12502
lthumb 26.4531 42.6274
rfemur 12.7196 0.119372 26.9003
rtibia 2.73722
rfoot -17.1914 -24.0454
rtoes 6.31132
lfemur -16.6695 -0.399241 -18.4492
ltibia 33.8729
lfoot -17.4939 7.84825
ltoes -1.8333
90
root -37.8652 17.559 15.2542 -13.2783 76.7101 -14.71
lowerback 16.2269 -1.36573 4.1607
upperback 6.08515 -0.841558 0.848606
thorax -2.66626 -0.264669 -1.31262
lowerneck 0.580347 3.61844 4.86077
upperneck 2.05342 4.94484 -5.89564
head 0.836765 2.47653 -2.67709
rclavicle -4.72579e-015 3.90736e-015
rhumerus -45.7186 13.5858 -85.8838
rradius 37.5993
rwrist 0.468688
rhand -9.09892 -14.8387
rfingers 7.12502
rthumb 16.8512 -44.1275
lclavicle -4.72579e-015 3.90736e-015
lhumerus -45.8878 -1.57987 81.3302
lradius 43.9265
lwrist 5.38031
lhand 0.887938 14.4258
lfingers 7.12502
lthumb 26.4406 42.6015
rfemur 12.6189 0.0763655 26.8595
rtibia 2.8299
rfoot -17.2386 -24.0461
rtoes 6.29673
lfemur -16.7761 -0.501186 -18.4958
ltibia 33.9397
lfoot -17.4351 7.91257
ltoes -2.01657
91
root -37.8674 17.5575 15.2537 -13.1391 76.7741 -14.6243
lowerback 16.261 -1.35522 4.14424
upperback 6.06788 -0.829039 0.833182
thorax -2.70199 -0.259529 -1.3214
lowerneck 0.585525 3.60146 4.92659
upperneck 2.02364 4.92153 -5.91816
head 0.827696 2.46537 -2.69743
rclavicle -2.60905e-014 1.62755e-015
rhumerus -45.7408 13.493 -85.8682
rradius 37.6187
rwrist 0.473249
rhand -9.09963 -14.8874
rfingers 7.12502
rthumb 16.8505 -44.1763
lclavicle -2.60905e-014 1.62755e-015
lhumerus -45.8689 -1.61214 81.3262
lradius 43.912
lwrist 5.37225
lhand 0.86001 14.3929
lfingers 7.12502
lthumb 26.4139 42.5727
rfemur 12.5348 0.0263498 26.8239
rtibia 2.87224
rfoot -17.2522 -24.0556
rtoes 6.27558
lfemur -16.8899 -0.633344 -18.5389
ltibia 34.0064
lfoot -17.382 8.00184
ltoes -2.12392
92
root -37.8691 17.5565 15.2533 -13.0168 76.8363 -14.5608
lowerback 16.2901 -1.34211 4.13223
upperback 6.05367 -0.812626 0.819042
thorax -2.73159 -0.252233 -1.33214
lowerneck 0.589294 3.58408 4.99752
upperneck 1.99066 4.89749 -5.94214
head 0.817989 2.45386 -2.71924
rclavicle -1.134e-014 4.83916e-015
rhumerus -45.7698 13.3996 -85.8525
rradius 37.6537
rwrist 0.476889
rhand -9.10319 -14.9412
rfingers 7.12502
rthumb 16.8471 -44.2303
lclavicle -1.134e-014 4.83916e-015
lhumerus -45.8451 -1.64405 81.3233
lradius 43.8965
lwrist 5.36602
lhand 0.813973 14.3515
lfingers 7.12502
lthumb 26.3698 42.5379
rfemur 12.4936 -0.0233927 26.794
rtibia 2.81807
rfoot -17.2199 -24.0706
rtoes 6.28294
lfemur -17.0059 -0.784126 -18.5769
ltibia 34.0722
lfoot -17.3542 8.11239
ltoes -1.99512
93
root -37.8699 17.556 15.253 -12.9254 76.8904 -14.5356
lowerback 16.3083 -1.32415 4.12869
upperback 6.04361 -0.789057 0.807801
thorax -2.75077 -0.241068 -1.34608
lowerneck 0.587468 3.56631 5.07593
upperneck 1.95679 4.87276 -5.9697
head 0.80923 2.44194 -2.74357
rclavicle -8.01972e-015 -6.05672e-015
rhumerus -45.7929 13.2977 -85.832
rradius 37.6843
rwrist 0.48678
rhand -9.10671 -14.9958
rfingers 7.12502
rthumb 16.8437 -44.2852
lclavicle -8.01972e-015 -6.05672e-015
lhumerus -45.8172 -1.67722 81.3235
lradius 43.8829
lwrist 5.36472
lhand 0.761176 14.312
lfingers 7.12502
lthumb 26.3192 42.5059
rfemur 12.4988 -0.0673622 26.7744
rtibia 2.65714
rfoot -17.1438 -24.0889
rtoes 6.34241
lfemur -17.125 -0.947657 -18.6046
ltibia 34.1405
lfoot -17.3373 8.24315
ltoes -1.81199
